<svg width="173" height="76" viewBox="0 0 173 76" fill="none" xmlns="http://www.w3.org/2000/svg">
<path d="M2.442 53V34.352H6.845L7.252 36.831C7.844 35.943 8.621 35.24 9.583 34.722C10.5697 34.1793 11.692 33.908 12.95 33.908C13.8873 33.908 14.726 34.0313 15.466 34.278C16.206 34.5247 16.8597 34.8823 17.427 35.351C18.019 35.8197 18.5 36.4117 18.87 37.127C19.5607 36.1157 20.461 35.3263 21.571 34.759C22.681 34.1917 23.8897 33.908 25.197 33.908C26.825 33.908 28.1817 34.241 29.267 34.907C30.3523 35.5483 31.1663 36.4857 31.709 37.719C32.2763 38.9523 32.56 40.4693 32.56 42.27V53H27.602V42.714C27.602 41.234 27.306 40.0993 26.714 39.31C26.1467 38.5207 25.2587 38.126 24.05 38.126C23.2607 38.126 22.5577 38.3233 21.941 38.718C21.3243 39.1127 20.8433 39.68 20.498 40.42C20.1773 41.16 20.017 42.048 20.017 43.084V53H15.022V42.714C15.022 41.234 14.726 40.0993 14.134 39.31C13.542 38.5207 12.6293 38.126 11.396 38.126C10.6313 38.126 9.94067 38.3233 9.324 38.718C8.732 39.1127 8.26333 39.68 7.918 40.42C7.59733 41.16 7.437 42.048 7.437 43.084V53H2.442ZM45.34 53.444C43.564 53.444 41.9607 53.037 40.53 52.223C39.124 51.3843 38.0017 50.2373 37.163 48.782C36.349 47.302 35.942 45.6123 35.942 43.713C35.942 41.7643 36.349 40.0623 37.163 38.607C38.0017 37.127 39.1364 35.98 40.567 35.166C41.9977 34.3273 43.601 33.908 45.377 33.908C47.1777 33.908 48.781 34.3273 50.187 35.166C51.6177 35.98 52.74 37.127 53.554 38.607C54.3927 40.0623 54.812 41.752 54.812 43.676C54.812 45.6 54.3927 47.302 53.554 48.782C52.74 50.2373 51.6177 51.3843 50.187 52.223C48.7564 53.037 47.1407 53.444 45.34 53.444ZM45.34 49.115C46.1787 49.115 46.9187 48.9177 47.56 48.523C48.226 48.1283 48.744 47.524 49.114 46.71C49.5087 45.896 49.706 44.8847 49.706 43.676C49.706 42.4673 49.5087 41.4683 49.114 40.679C48.744 39.865 48.226 39.2607 47.56 38.866C46.9187 38.4467 46.191 38.237 45.377 38.237C44.5877 38.237 43.86 38.4467 43.194 38.866C42.528 39.2607 41.9977 39.865 41.603 40.679C41.233 41.4683 41.048 42.4673 41.048 43.676C41.048 44.8847 41.233 45.896 41.603 46.71C41.9977 47.524 42.5157 48.1283 43.157 48.523C43.823 48.9177 44.5507 49.115 45.34 49.115ZM67.405 53.444C65.5304 53.444 63.8654 53.0247 62.41 52.186C60.9547 51.3473 59.82 50.2003 59.006 48.745C58.192 47.2897 57.785 45.6247 57.785 43.75C57.785 41.826 58.192 40.1363 59.006 38.681C59.82 37.201 60.9547 36.0417 62.41 35.203C63.8654 34.3397 65.5304 33.908 67.405 33.908C69.7977 33.908 71.808 34.537 73.436 35.795C75.064 37.053 76.1 38.7797 76.544 40.975H71.253C71.031 40.1117 70.5624 39.4333 69.847 38.94C69.1564 38.4467 68.33 38.2 67.368 38.2C66.5047 38.2 65.7277 38.422 65.037 38.866C64.371 39.2853 63.8407 39.9143 63.446 40.753C63.076 41.567 62.891 42.5413 62.891 43.676C62.891 44.5393 63.002 45.3163 63.224 46.007C63.446 46.673 63.7544 47.2527 64.149 47.746C64.5437 48.2147 65.0124 48.5723 65.555 48.819C66.1224 49.0657 66.7267 49.189 67.368 49.189C68.0094 49.189 68.589 49.078 69.107 48.856C69.6497 48.634 70.106 48.3257 70.476 47.931C70.846 47.5117 71.105 47.006 71.253 46.414H76.544C76.1 48.56 75.0517 50.2743 73.399 51.557C71.771 52.815 69.773 53.444 67.405 53.444ZM80.1116 53V26.36H85.1066V37.127C85.7233 36.1403 86.5373 35.3633 87.5486 34.796C88.5846 34.204 89.781 33.908 91.1376 33.908C92.6916 33.908 93.999 34.241 95.0596 34.907C96.1203 35.5483 96.922 36.4857 97.4646 37.719C98.0073 38.9523 98.2786 40.4817 98.2786 42.307V53H93.3206V42.751C93.3206 41.271 93.0123 40.1363 92.3956 39.347C91.779 38.533 90.8046 38.126 89.4726 38.126C88.6586 38.126 87.9186 38.3233 87.2526 38.718C86.5866 39.1127 86.0563 39.6923 85.6616 40.457C85.2916 41.197 85.1066 42.085 85.1066 43.121V53H80.1116ZM108.534 53.444C106.98 53.444 105.697 53.1973 104.686 52.704C103.674 52.186 102.922 51.5077 102.429 50.669C101.96 49.8057 101.726 48.856 101.726 47.82C101.726 46.6853 102.009 45.6863 102.577 44.823C103.169 43.9597 104.044 43.2813 105.204 42.788C106.388 42.2947 107.868 42.048 109.644 42.048H114.269C114.269 41.1353 114.145 40.383 113.899 39.791C113.652 39.1743 113.27 38.718 112.752 38.422C112.234 38.126 111.543 37.978 110.68 37.978C109.742 37.978 108.941 38.1877 108.275 38.607C107.633 39.0017 107.239 39.6183 107.091 40.457H102.244C102.367 39.125 102.799 37.978 103.539 37.016C104.303 36.0293 105.302 35.2647 106.536 34.722C107.794 34.1793 109.187 33.908 110.717 33.908C112.468 33.908 113.985 34.204 115.268 34.796C116.55 35.388 117.537 36.239 118.228 37.349C118.918 38.459 119.264 39.828 119.264 41.456V53H115.046L114.491 50.151C114.219 50.6443 113.899 51.0883 113.529 51.483C113.159 51.8777 112.727 52.223 112.234 52.519C111.74 52.815 111.185 53.037 110.569 53.185C109.952 53.3577 109.274 53.444 108.534 53.444ZM109.718 49.596C110.359 49.596 110.926 49.485 111.42 49.263C111.938 49.0163 112.382 48.6957 112.752 48.301C113.122 47.8817 113.405 47.413 113.603 46.895C113.825 46.3523 113.973 45.7727 114.047 45.156V45.119H110.236C109.471 45.119 108.842 45.2177 108.349 45.415C107.88 45.5877 107.535 45.8467 107.313 46.192C107.091 46.5373 106.98 46.932 106.98 47.376C106.98 47.8693 107.091 48.2763 107.313 48.597C107.535 48.9177 107.855 49.1643 108.275 49.337C108.694 49.5097 109.175 49.596 109.718 49.596Z" fill="#1E1E1E"/>
<ellipse cx="137.2" cy="42.3" rx="14.2" ry="14.3" fill="#1E1E1E"/>
<ellipse cx="159.7" cy="42.3" rx="7.15" ry="13.45" fill="#1E1E1E"/>
<ellipse cx="170.5" cy="42.3" rx="2.5" ry="12.2" fill="#1E1E1E"/>
</svg>
