<svg width="141" height="76" viewBox="0 0 141 76" fill="none" xmlns="http://www.w3.org/2000/svg">
<path d="M2.553 53V27.1H8.51L16.428 43.269L24.272 27.1H30.229V53H25.234V35.61L18.389 49.374H14.43L7.548 35.61V53H2.553ZM43.2805 53.444C41.5045 53.444 39.9011 53.037 38.4705 52.223C37.0645 51.3843 35.9421 50.2373 35.1035 48.782C34.2895 47.302 33.8825 45.6123 33.8825 43.713C33.8825 41.7643 34.2895 40.0623 35.1035 38.607C35.9421 37.127 37.0768 35.98 38.5075 35.166C39.9381 34.3273 41.5415 33.908 43.3175 33.908C45.1181 33.908 46.7215 34.3273 48.1275 35.166C49.5581 35.98 50.6805 37.127 51.4945 38.607C52.3331 40.0623 52.7525 41.752 52.7525 43.676C52.7525 45.6 52.3331 47.302 51.4945 48.782C50.6805 50.2373 49.5581 51.3843 48.1275 52.223C46.6968 53.037 45.0811 53.444 43.2805 53.444ZM43.2805 49.115C44.1191 49.115 44.8591 48.9177 45.5005 48.523C46.1665 48.1283 46.6845 47.524 47.0545 46.71C47.4491 45.896 47.6465 44.8847 47.6465 43.676C47.6465 42.4673 47.4491 41.4683 47.0545 40.679C46.6845 39.865 46.1665 39.2607 45.5005 38.866C44.8591 38.4467 44.1315 38.237 43.3175 38.237C42.5281 38.237 41.8005 38.4467 41.1345 38.866C40.4685 39.2607 39.9381 39.865 39.5435 40.679C39.1735 41.4683 38.9885 42.4673 38.9885 43.676C38.9885 44.8847 39.1735 45.896 39.5435 46.71C39.9381 47.524 40.4561 48.1283 41.0975 48.523C41.7635 48.9177 42.4911 49.115 43.2805 49.115ZM65.3455 53.444C63.4708 53.444 61.8058 53.0247 60.3505 52.186C58.8951 51.3473 57.7605 50.2003 56.9465 48.745C56.1325 47.2897 55.7255 45.6247 55.7255 43.75C55.7255 41.826 56.1325 40.1363 56.9465 38.681C57.7605 37.201 58.8951 36.0417 60.3505 35.203C61.8058 34.3397 63.4708 33.908 65.3455 33.908C67.7381 33.908 69.7485 34.537 71.3765 35.795C73.0045 37.053 74.0405 38.7797 74.4845 40.975H69.1935C68.9715 40.1117 68.5028 39.4333 67.7875 38.94C67.0968 38.4467 66.2705 38.2 65.3085 38.2C64.4451 38.2 63.6681 38.422 62.9775 38.866C62.3115 39.2853 61.7811 39.9143 61.3865 40.753C61.0165 41.567 60.8315 42.5413 60.8315 43.676C60.8315 44.5393 60.9425 45.3163 61.1645 46.007C61.3865 46.673 61.6948 47.2527 62.0895 47.746C62.4841 48.2147 62.9528 48.5723 63.4955 48.819C64.0628 49.0657 64.6671 49.189 65.3085 49.189C65.9498 49.189 66.5295 49.078 67.0475 48.856C67.5901 48.634 68.0465 48.3257 68.4165 47.931C68.7865 47.5117 69.0455 47.006 69.1935 46.414H74.4845C74.0405 48.56 72.9921 50.2743 71.3395 51.557C69.7115 52.815 67.7135 53.444 65.3455 53.444ZM78.0521 53V26.36H83.0471V37.127C83.6637 36.1403 84.4777 35.3633 85.4891 34.796C86.5251 34.204 87.7214 33.908 89.0781 33.908C90.6321 33.908 91.9394 34.241 93.0001 34.907C94.0607 35.5483 94.8624 36.4857 95.4051 37.719C95.9477 38.9523 96.2191 40.4817 96.2191 42.307V53H91.2611V42.751C91.2611 41.271 90.9527 40.1363 90.3361 39.347C89.7194 38.533 88.7451 38.126 87.4131 38.126C86.5991 38.126 85.8591 38.3233 85.1931 38.718C84.5271 39.1127 83.9967 39.6923 83.6021 40.457C83.2321 41.197 83.0471 42.085 83.0471 43.121V53H78.0521ZM106.474 53.444C104.92 53.444 103.637 53.1973 102.626 52.704C101.615 52.186 100.862 51.5077 100.369 50.669C99.9005 49.8057 99.6661 48.856 99.6661 47.82C99.6661 46.6853 99.9498 45.6863 100.517 44.823C101.109 43.9597 101.985 43.2813 103.144 42.788C104.328 42.2947 105.808 42.048 107.584 42.048H112.209C112.209 41.1353 112.086 40.383 111.839 39.791C111.592 39.1743 111.21 38.718 110.692 38.422C110.174 38.126 109.483 37.978 108.62 37.978C107.683 37.978 106.881 38.1877 106.215 38.607C105.574 39.0017 105.179 39.6183 105.031 40.457H100.184C100.307 39.125 100.739 37.978 101.479 37.016C102.244 36.0293 103.243 35.2647 104.476 34.722C105.734 34.1793 107.128 33.908 108.657 33.908C110.408 33.908 111.925 34.204 113.208 34.796C114.491 35.388 115.477 36.239 116.168 37.349C116.859 38.459 117.204 39.828 117.204 41.456V53H112.986L112.431 50.151C112.16 50.6443 111.839 51.0883 111.469 51.483C111.099 51.8777 110.667 52.223 110.174 52.519C109.681 52.815 109.126 53.037 108.509 53.185C107.892 53.3577 107.214 53.444 106.474 53.444ZM107.658 49.596C108.299 49.596 108.867 49.485 109.36 49.263C109.878 49.0163 110.322 48.6957 110.692 48.301C111.062 47.8817 111.346 47.413 111.543 46.895C111.765 46.3523 111.913 45.7727 111.987 45.156V45.119H108.176C107.411 45.119 106.782 45.2177 106.289 45.415C105.82 45.5877 105.475 45.8467 105.253 46.192C105.031 46.5373 104.92 46.932 104.92 47.376C104.92 47.8693 105.031 48.2763 105.253 48.597C105.475 48.9177 105.796 49.1643 106.215 49.337C106.634 49.5097 107.115 49.596 107.658 49.596Z" fill="white"/>
</svg>
